<svg xmlns="http://www.w3.org/2000/svg" viewBox="0 0 1280 1024" role="img"><path d="M729.148 344.584c-23.78-18.874-90.531 12.742-109.405 59.607-23.726 59.555-58.915 146.46-93.41 184.528-36.416 40.04-40.041 9.117-36.416-13.969 8.424-54.382 61.474-180.315 90.478-215.824-10.77-15.942-81.04-13.65-129.878 62.167-18.235 28.63-59.875 124.014-106.1 199.19-10.13 16.261-22.82 4.905-13.01-33.163 11.037-43.986 43.614-164.694 85.574-259.757 110.044-21.807 226.86-37.109 316.379-37.428 12.05-3.253 20.153-14.023 0-14.662-77.149-2.613-193.005 6.504-301.398 20.206 20.847-41.693 43.293-74.856 66.06-88.878-24.74-15.622-74.857-9.437-103.488 32.896a562.489 562.489 0 00-37.428 66.38c-79.441 12.369-147.473 26.337-181.968 39.4-35.776 13.649-31.883 56.942-10.077 48.784 45.265-16.9 106.42-34.495 174.451-50.117-43.293 97.676-77.149 212.892-85.253 259.757-20.207 113.937 50.437 113.244 84.933 68.352 37.428-49.158 115.537-222.01 127.586-240.19 3.572-6.185 8.477-2.933 5.865 2.559-87.226 174.131-79.761 241.523-9.117 226.541 31.883-6.825 86.905-61.474 101.248-89.838 2.932-6.825 9.117-6.185 7.784-3.252-55.343 143.58-125.614 259.757-172.799 296.225-42.973 32.843-74.909-38.44 77.096-140.648 22.5-15.249 12.05-36.095-13.33-28.951-78.428 12.37-302.996 83.653-401.631 152.005-7.518 5.225-14.342 9.437-14.022 20.207.32 6.184 11.09 3.892 16.314.64 127.586-76.51 232.033-106.42 351.835-131.532a6.99 6.99 0 005.172.373c5.544-1.332 5.225 1.6 1.652 3.892q-8.884 5.156-18.234 9.437c-80.72 31.564-129.559 101.195-112.284 136.704 14.662 30.603 93.73 19.513 131.158-.64 91.81-49.798 158.51-147.473 204.095-282.204C667.3 483.9 717.418 348.53 729.148 344.584zM197.264 730.327c33.216-39.72 37.108-80.72 11.41-156.91-16.262-48.144-43.293-85.252-23.46-115.216 21.167-31.883 66.113-.96 28.685 41.64l7.464 5.225c44.946 5.225 67.072-56.302 33.536-73.897-88.559-46.225-166.027 42.654-131.851 145.5 14.662 43.614 35.188 89.839 18.554 126.627-14.29 31.563-41.96 50.117-60.514 50.757-38.761 1.973-13.01-86.905 31.563-109.032 3.892-1.92 9.437-4.532 4.212-11.036-54.97-6.185-87.226 19.194-105.78 54.65-54.01 103.166 102.528 141.287 186.18 41.692zm1065.314-110.044c-149.393-19.514-471.583 6.504-613.831 44.305-42.333 11.037-30.604 33.483-9.117 29.271.32 0 9.437-2.293 9.757-2.293 116.869-22.766 400.352-42.653 565.686-11.036 19.887 3.572 79.441-55.982 47.505-60.247zm-491.79-17.542c41.64-20.846 103.487-149.765 144.167-220.356 2.933-5.225 8.158-1.013 5.225 2.56-102.847 177.063-59.234 197.59-18.554 194.977 54.383-3.252 104.5-81.36 115.537-98.955 4.585-6.825 7.197-1.28 4.585 3.626-2.613 8.104-12.05 22.446-20.847 41.96-12.37 27.67.64 38.387 11.41 43.292 16.901 8.158 63.126 2.933 70.27-25.378-46.171-.96 64.46-219.077 75.87-232.406-30.923-17.914-78.748 1.653-100.608 44.572-46.492 92.13-85.573 166.347-109.991 167.627-47.505 2.612 54.702-205.375 71.283-211.88-10.076-14.661-74.856-8.477-111.004 47.506-13.01 20.206-92.397 160.802-111.965 183.941-34.495 41-37.108 5.865-27.35-35.189 3.251-13.969 8.796-31.883 15.994-51.717 22.766-51.45 47.185-67.711 62.167-84.346 100.555-111.591 158.19-202.122 135.37-237.578-20.153-31.563-87.545-17.594-130.838 47.505-79.761 119.482-153.285 283.163-162.722 358.073-9.117 74.856 45.213 80.347 82 62.166zm393.208-175.784c12.69 31.244 31.883 62.167 20.473 89.519-9.437 23.406-21.806 33.216-35.455 35.455-19.194 3.252-14.022-56.942 18.874-74.856 2.932-1.6 7.144-9.437 3.252-13.97-41.64-2.292-65.099 17.542-77.788 43.934-36.788 77.148 83.333 98.262 142.248 22.446 23.406-30.284 24.419-60.194 1.92-114.577-14.29-34.496-36.096-60.194-22.447-83.014 14.662-24.045 49.798-3.252 23.46 29.004l5.864 3.253c34.176 1.92 48.145-43.613 22.126-55.023-68.671-29.27-132.81 44.573-102.527 117.83zM813.12 383.665c3.572-8.158 5.865-10.397 12.05-24.1 35.775-78.748 80.72-161.761 111.644-200.469 19.194-20.207 46.172 7.145-2.612 82a755.488 755.488 0 01-96.663 120.762v.32c-9.117 10.077-17.275 18.554-20.847 23.46-2.612 3.252-5.545 2.612-3.572-1.973z"/></svg>